<mxfile host="app.diagrams.net" modified="2024-06-02T08:26:25.066Z" agent="Mozilla/5.0 (Windows NT 10.0; Win64; x64; rv:126.0) Gecko/20100101 Firefox/126.0" etag="UxdynlzSIVZcWsUsS9-T" version="24.4.13" type="device">
  <diagram name="Seite-1" id="wzwOqGdDTgdqMdylv4f5">
    <mxGraphModel dx="998" dy="561" grid="1" gridSize="10" guides="1" tooltips="1" connect="1" arrows="1" fold="1" page="1" pageScale="1" pageWidth="827" pageHeight="1169" math="0" shadow="0">
      <root>
        <mxCell id="0" />
        <mxCell id="1" parent="0" />
        <mxCell id="pimoy_SyP5DX7-YjEU7S-1" value="" style="endArrow=block;html=1;rounded=0;endFill=0;endSize=10;dashed=1;" parent="1" source="pimoy_SyP5DX7-YjEU7S-2" target="pimoy_SyP5DX7-YjEU7S-9" edge="1">
          <mxGeometry width="50" height="50" relative="1" as="geometry">
            <mxPoint x="240" y="240" as="sourcePoint" />
            <mxPoint x="330" y="140" as="targetPoint" />
          </mxGeometry>
        </mxCell>
        <mxCell id="pimoy_SyP5DX7-YjEU7S-2" value="Tier" style="rounded=0;whiteSpace=wrap;html=1;fontStyle=1" parent="1" vertex="1">
          <mxGeometry x="100" y="80" width="80" height="40" as="geometry" />
        </mxCell>
        <mxCell id="pimoy_SyP5DX7-YjEU7S-9" value="&amp;lt;&amp;lt;interface&amp;gt;&amp;gt;&lt;br&gt;&lt;b&gt;TierSchnittstelle&lt;/b&gt;" style="rounded=0;whiteSpace=wrap;html=1;fontStyle=0" parent="1" vertex="1">
          <mxGeometry x="320" y="80" width="160" height="40" as="geometry" />
        </mxCell>
        <mxCell id="pimoy_SyP5DX7-YjEU7S-10" value="" style="endArrow=none;html=1;rounded=0;strokeWidth=2;strokeColor=#006666;" parent="1" edge="1">
          <mxGeometry width="50" height="50" relative="1" as="geometry">
            <mxPoint x="50" y="160" as="sourcePoint" />
            <mxPoint x="500" y="160" as="targetPoint" />
          </mxGeometry>
        </mxCell>
        <mxCell id="pimoy_SyP5DX7-YjEU7S-11" value="&amp;lt;&amp;lt;use&amp;gt;&amp;gt;" style="endArrow=open;html=1;rounded=0;endFill=0;endSize=10;dashed=1;verticalAlign=top;labelBackgroundColor=none;" parent="1" source="pimoy_SyP5DX7-YjEU7S-12" target="pimoy_SyP5DX7-YjEU7S-13" edge="1">
          <mxGeometry width="50" height="50" relative="1" as="geometry">
            <mxPoint x="240" y="360" as="sourcePoint" />
            <mxPoint x="330" y="260" as="targetPoint" />
          </mxGeometry>
        </mxCell>
        <mxCell id="pimoy_SyP5DX7-YjEU7S-12" value="MaskeTiererfassung" style="rounded=0;whiteSpace=wrap;html=1;fontStyle=1" parent="1" vertex="1">
          <mxGeometry x="70" y="200" width="140" height="40" as="geometry" />
        </mxCell>
        <mxCell id="pimoy_SyP5DX7-YjEU7S-13" value="&amp;lt;&amp;lt;interface&amp;gt;&amp;gt;&lt;br&gt;&lt;b&gt;TierSchnittstelle&lt;/b&gt;" style="rounded=0;whiteSpace=wrap;html=1;fontStyle=0" parent="1" vertex="1">
          <mxGeometry x="320" y="200" width="160" height="40" as="geometry" />
        </mxCell>
      </root>
    </mxGraphModel>
  </diagram>
</mxfile>
